<svg xmlns="http://www.w3.org/2000/svg" xmlns:xlink="http://www.w3.org/1999/xlink" viewBox="0 0 232.14 227.23"><defs><radialGradient id="Unbenannter_Verlauf_51" cx="169.69" cy="76.53" r="28.9" gradientUnits="userSpaceOnUse"><stop offset="0" stop-color="#f6fc00"/><stop offset="0.86" stop-color="#fff" stop-opacity="0"/></radialGradient><linearGradient id="Unbenannter_Verlauf_41" x1="169.69" y1="66.81" x2="169.69" y2="76.55" gradientUnits="userSpaceOnUse"><stop offset="0" stop-color="#f6fc02" stop-opacity="0"/><stop offset="0.09" stop-color="#f6fc02" stop-opacity="0.01"/><stop offset="0.16" stop-color="#f6fc02" stop-opacity="0.06"/><stop offset="0.23" stop-color="#f6fc02" stop-opacity="0.13"/><stop offset="0.3" stop-color="#f6fc02" stop-opacity="0.23"/><stop offset="0.37" stop-color="#f6fc01" stop-opacity="0.36"/><stop offset="0.43" stop-color="#f6fc01" stop-opacity="0.52"/><stop offset="0.5" stop-color="#f6fc01" stop-opacity="0.71"/><stop offset="0.56" stop-color="#f6fc00" stop-opacity="0.92"/><stop offset="0.58" stop-color="#f6fc00"/></linearGradient></defs><title>Illuninatio_Logo</title><g id="Ebene_6" data-name="Ebene 6"><circle cx="121.25" cy="89.76" r="68.52" style="fill:#004fce;stroke:#000;stroke-miterlimit:10;stroke-width:2px"/><path d="M57.29,175.76v-3.44a1,1,0,0,1,1-1h2.28a1,1,0,0,1,1,1v3.44a1,1,0,0,1-1,1H58.26A1,1,0,0,1,57.29,175.76Zm0,30V181.09a1,1,0,0,1,1-1h2.28a1,1,0,0,1,1,1v24.68a1,1,0,0,1-1,1H58.26A1,1,0,0,1,57.29,205.77Z" style="stroke:#000;stroke-miterlimit:10;stroke-width:0.5px"/><path d="M65.12,205.77V172.32a1,1,0,0,1,1-1h2.28a1,1,0,0,1,1,1v33.45a1,1,0,0,1-1,1H66.08A1,1,0,0,1,65.12,205.77Z" style="stroke:#000;stroke-miterlimit:10;stroke-width:0.5px"/><path d="M72.9,205.77V172.32a1,1,0,0,1,1-1h2.28a1,1,0,0,1,1,1v33.45a1,1,0,0,1-1,1H73.87A1,1,0,0,1,72.9,205.77Z" style="stroke:#000;stroke-miterlimit:10;stroke-width:0.5px"/><path d="M88,206.74a1,1,0,0,1-1-.88c0-.17,0-.35,0-.54a3.82,3.82,0,0,1-1.4,1.25,4.16,4.16,0,0,1-1.79.38,2.82,2.82,0,0,1-2.42-1.2,5.4,5.4,0,0,1-.89-3.27V181.09a1,1,0,0,1,1-1H83.8a1,1,0,0,1,1,1v20.7c0,.69.27,1,.81,1a1.25,1.25,0,0,0,1-.43V181.09a1,1,0,0,1,1-1h2.28a1,1,0,0,1,1,1v24.68a1,1,0,0,1-1,1Z" style="stroke:#000;stroke-miterlimit:10;stroke-width:0.5px"/><path d="M107.41,206.74a1,1,0,0,1-1-1V184.85c0-.69-.29-1-.86-1a1.36,1.36,0,0,0-1,.43v21.52a1,1,0,0,1-1,1h-2.28a1,1,0,0,1-1-1V184.85c0-.69-.29-1-.86-1a1.24,1.24,0,0,0-1,.43v21.52a1,1,0,0,1-1,1H95.28a1,1,0,0,1-1-1V181.09a1,1,0,0,1,1-1H97a1,1,0,0,1,1,.88,4.87,4.87,0,0,1,0,.54,3.72,3.72,0,0,1,3.27-1.85,2.87,2.87,0,0,1,2.19.84.94.94,0,0,0,1.27.08,4.6,4.6,0,0,1,.71-.47,4.11,4.11,0,0,1,1.94-.45,2.72,2.72,0,0,1,2.45,1.33,7.34,7.34,0,0,1,.81,3.79v21a1,1,0,0,1-1,1Z" style="stroke:#000;stroke-miterlimit:10;stroke-width:0.5px"/><path d="M114.18,175.76v-3.44a1,1,0,0,1,1-1h2.27a1,1,0,0,1,1,1v3.44a1,1,0,0,1-1,1h-2.27A1,1,0,0,1,114.18,175.76Zm0,30V181.09a1,1,0,0,1,1-1h2.27a1,1,0,0,1,1,1v24.68a1,1,0,0,1-1,1h-2.27A1,1,0,0,1,114.18,205.77Z" style="stroke:#000;stroke-miterlimit:10;stroke-width:0.5px"/><path d="M129,206.74a1,1,0,0,1-1-1V184.85c0-.69-.29-1-.86-1a1.27,1.27,0,0,0-1,.43v21.52a1,1,0,0,1-1,1H123a1,1,0,0,1-1-1V181.09a1,1,0,0,1,1-1h1.75a1,1,0,0,1,1,.88c0,.18,0,.36,0,.54a3.72,3.72,0,0,1,3.27-1.85c2.21,0,3.31,1.64,3.31,4.9v21.18a1,1,0,0,1-1,1Z" style="stroke:#000;stroke-miterlimit:10;stroke-width:0.5px"/><path d="M141.52,206.74a3.72,3.72,0,0,1-.17-1.33,4.08,4.08,0,0,1-1.12,1.24,2.63,2.63,0,0,1-1.63.48,3.31,3.31,0,0,1-2.58-1,4.74,4.74,0,0,1-.9-3.23V199a8.3,8.3,0,0,1,.66-3.7,6.51,6.51,0,0,1,2-2.24,17.93,17.93,0,0,1,1.62-1q.56-.32,1.17-.63a1,1,0,0,0,.53-.86v-5.65c0-.69-.32-1-.95-1s-1,.34-1,1v4.66a1,1,0,0,1-1,1h-1.77a1,1,0,0,1-1-1v-4.66q0-5.25,4.72-5.25,4.91,0,4.91,5.25V204.5c0,.44,0,.84,0,1.18a1,1,0,0,1-1,1.06Zm-.42-12.17a3.13,3.13,0,0,0-1.08.69,2.52,2.52,0,0,0-.77,2.06v4.82a.75.75,0,0,0,.28.64,1,1,0,0,0,.66.22,1,1,0,0,0,.91-.65Z" style="stroke:#000;stroke-miterlimit:10;stroke-width:0.5px"/><path d="M154.64,207l-.64.06c-.2,0-.42,0-.65,0a4.54,4.54,0,0,1-3.76-1.47,6.23,6.23,0,0,1-1.18-4V183.78h-1.34v-3.66h1.34v-7.46a1,1,0,0,1,1-1h2.28a1,1,0,0,1,1,1v6.49a1,1,0,0,0,1,1h0a1,1,0,0,1,1,1v1.72a1,1,0,0,1-1,1h0a1,1,0,0,0-1,1v16.8a1.83,1.83,0,0,0,.52,1.52,1.8,1.8,0,0,0,.71.33,1,1,0,0,1,.79,1Z" style="stroke:#000;stroke-miterlimit:10;stroke-width:0.5px"/><path d="M157.18,175.76v-3.44a1,1,0,0,1,1-1h2.27a1,1,0,0,1,1,1v3.44a1,1,0,0,1-1,1h-2.27A1,1,0,0,1,157.18,175.76Zm0,30V181.09a1,1,0,0,1,1-1h2.27a1,1,0,0,1,1,1v24.68a1,1,0,0,1-1,1h-2.27A1,1,0,0,1,157.18,205.77Z" style="stroke:#000;stroke-miterlimit:10;stroke-width:0.5px"/><path d="M164.75,185a5.69,5.69,0,0,1,1.24-4,6,6,0,0,1,7.66,0,5.69,5.69,0,0,1,1.24,4v16.82a5.6,5.6,0,0,1-1.24,3.93,6.07,6.07,0,0,1-7.66,0,5.6,5.6,0,0,1-1.24-3.93Zm6,.18c0-.78-.32-1.17-1-1.17s-.95.39-.95,1.17v16.46c0,.78.32,1.17.95,1.17s1-.39,1-1.17Z" style="stroke:#000;stroke-miterlimit:10;stroke-width:0.5px"/></g><g id="Wortmarke"><circle cx="169.69" cy="76.53" r="28.9" style="fill:url(#Unbenannter_Verlauf_51)"/><path d="M156.82,108c1.52-7.8-5.59-21.42-3.27-15.52s-5.75,29.46-4.35,22.16-1-16-1.13-12.62-6.37,17.11-6.37,17.11,1.64-14.16.56-9.74-10.11,13.43-9.46,13.24,1.82-12.23.26-8.63-9.23,10.55-8.62,9.33,1.63-9.15,1.35-8.7-11.58,10.23-10.49,9.48,3.11-9.89,2.65-8.63-13.42,8.46-11.16,7.6,4.11-10.8,3.79-8.9-17,5.6-15.08,5.43,8.59-9.65,6.77-7.21-13,4-12.28,3.87,5.21-5.52,4.47-4.64-8.6,1.34-7.93,1.5,5.12-3.77,4-3.42a23.72,23.72,0,0,1-5.06,0s-3.25,21,44.81,17.33C130.24,127,154.53,119.69,156.82,108Z" style="fill:#fff"/><path d="M145.41,92c5,4.48-3.5,15.54-2.1,12.56s-.58-6.46-.58-6.46c-.44,5.49-5.87,9.43-5.87,9.43,1.79-1.56.3-6.28.3-6.28-1,5.41-6.77,7.46-5.72,6.63s1.16-7.88.69-5-6.45,6.69-5.67,5.69,0-5,0-4.65-5.76,6.17-6,4-2.25-4.29-2.29-4-3.23,5.48-3.07,4.33-3.43-4.87-3.41-4.68a55.14,55.14,0,0,1-4.09,4.76c0-.21-2.23-7.78-2.45-5.83s-4.28,5-3.69,4.78-1.38-5.69-1.38-5.69L96.26,104l-.27-3.1L94,102,93.8,98s34.57,4.79,42.17-.71h0Z" style="fill:#fff"/><path d="M47.67,76.55l1.15-1.79S22.1,125.25,67.15,144.1c45.67,19.12,92.95-5.52,90.63-34.66,0,0-23.19,23.75-54.69,14.64S92.28,98.51,92.28,98.51s43.92,11.89,54.26-5.83c0,0,1.29-19-17.26-26.28s-1-10.12-1-10.12-1.59-1.18-4.85-.45c-.19,0-2.44.67-2.64.73l2-.58s.21-.22.6-.59c3.19-3,18.52-16.39,33.3-8.5,13.66,7.29,14,22.36,14,22.36a5.08,5.08,0,0,1-3.67,4.81c-3.84,1.38-1.77,8.18,2.5,7.71s6.61-3.27,4.31-7.8c-1.16-2.27-1.94-1.73-2.22-6.71a28.2,28.2,0,0,0-1.57-6.63,32.06,32.06,0,0,0-11.72-14.74c-6.81-4.54-22.34-10.24-39,7.16-.24.25-5.91,6.43-6.15,6.69l5.51-6.14c.07-1.43,0-4.94-1.28-5.61,0,0,.29,8.08-5.32,6.67s-10.56-3-13-3.12l.5,1.32a11,11,0,0,1,2.16,2.37l1.75.53S96.41,52.34,99.73,47c3-4.87,2.67-9.54,1.47-9.82a6.54,6.54,0,0,0-6,2.13,9.88,9.88,0,0,1-6,3.33c-1.26.11-5.78,1-6.16,2.29s-1.77,3.13-3.33,3.18-3.47.53-3.31,1.24-2.25,1.92-2.54,2a1.66,1.66,0,0,0-1.26,1.53c0,1-.25,1.61-1.12,1.76s-2.73,1.64-.82,2.57" style="fill:#ff5742"/><path d="M86.54,52.46a10.83,10.83,0,0,0-2.13.43A30.24,30.24,0,0,0,80,54.53c-3.58,1.69-13.33,6.24-21.09,4.71a35.82,35.82,0,0,1-18.4-9.61c-3.69-3.72-8.62-4.81-11-2.52s5.08,7.25,1.21,7.32c-7.74.14-13.16,5-6.5,6.56,6.07,1.37,6.67,2.2,3,3.67-11.28,4.55-6.44,12-2.92,10.67,7-2.63,18.55-6.43,19.57-1.27s-.65,8.23-1,16.24" style="fill:#ff5742"/><path d="M72.92,100.94a20.48,20.48,0,0,0-2.2-4.45,14.41,14.41,0,0,0-3.31-3.65A10.22,10.22,0,0,0,63,90.92c-.4,0-.81,0-1.22,0-.2,0-.4,0-.6,0l-.61.08-1.21.17-1.17.37a16.61,16.61,0,0,0-2.31.88,15.83,15.83,0,0,0-2.16,1.14c-.64.43-1.36,1-1.24,1.62s.91,1.1,1.55,1.61a3.18,3.18,0,0,1,.94,1,1,1,0,0,1,0,.87,1.61,1.61,0,0,1-.47.62,10.24,10.24,0,0,1-2.24,1.3c-.75.36-1.5.71-2.2,1.11a3.89,3.89,0,0,0-1.62,1.5,3.41,3.41,0,0,0,0,2.14A1.16,1.16,0,0,0,50,106a15.81,15.81,0,0,0,2.16-1.1,1.94,1.94,0,0,1,1.58-.13,1.32,1.32,0,0,1,.42.29,3.45,3.45,0,0,1,.25.41l.11.42,0,.38a5.67,5.67,0,0,1-.84,2.6,11,11,0,0,1-.77,1.08c-.25.32-.5.62-.72,1a7.89,7.89,0,0,0-1,2.09,2.32,2.32,0,0,0,0,1.92.83.83,0,0,0,.7.23l.51-.1.52-.21c.68-.34,1.41-.81,2.13-1.22,1.44-.84,2.89-1.67,4.38-2.43s3-1.49,4.54-2.13a18.39,18.39,0,0,1,4.82-1.4v.1a18.53,18.53,0,0,0-4.64,1.72c-1.5.71-3,1.5-4.39,2.33s-2.87,1.66-4.28,2.55c-.71.43-1.36.89-2.16,1.32l-.64.27a7.16,7.16,0,0,1-.7.17,1.8,1.8,0,0,1-1.56-.56,2.28,2.28,0,0,1-.45-1.51,6,6,0,0,1,.25-1.36,9.29,9.29,0,0,1,1.17-2.36c.23-.37.52-.7.78-1a8.36,8.36,0,0,0,.69-.94,4.65,4.65,0,0,0,.73-2.09c0-.35-.09-.59-.21-.61a1.09,1.09,0,0,0-.82.12,14.33,14.33,0,0,1-2.31,1.1,2.37,2.37,0,0,1-1.5-.1,2,2,0,0,1-1-1.14,3.63,3.63,0,0,1-.2-1.4,4.89,4.89,0,0,1,.27-1.36,4.5,4.5,0,0,1,2-1.85c.75-.42,1.52-.76,2.27-1.11a10.25,10.25,0,0,0,2.1-1.15c.28-.26.39-.46.27-.69a2.75,2.75,0,0,0-.75-.79c-.31-.26-.65-.51-1-.82a2.24,2.24,0,0,1-.77-1.19,1.59,1.59,0,0,1,.5-1.38,5.36,5.36,0,0,1,1-.83,15.5,15.5,0,0,1,2.26-1.15A15.92,15.92,0,0,1,58,91l1.22-.36,1.26-.16.63-.07c.22,0,.43,0,.64,0,.43,0,.85,0,1.27.09a10.56,10.56,0,0,1,4.58,2.07,14.71,14.71,0,0,1,3.3,3.78A20.56,20.56,0,0,1,73,100.91Z" style="fill:#fff"/><ellipse cx="141.78" cy="85.24" rx="2.45" ry="3.17" transform="translate(-7.04 12.99) rotate(-5.12)" style="fill:#fff"/><ellipse cx="101.58" cy="90.99" rx="3.39" ry="3.81" transform="translate(-7.71 9.43) rotate(-5.12)" style="fill:#fff"/><path d="M170.52,68.9a5.07,5.07,0,0,1-3.67,4.8c-3.84,1.38-1.77,8.18,2.5,7.71s6.61-3.26,4.31-7.8c-1.16-2.27-1.94-1.72-2.22-6.71" style="fill:url(#Unbenannter_Verlauf_41)"/><path d="M118.49,53.25a18.25,18.25,0,0,0-.19-3,7.48,7.48,0,0,0-.36-1.41,1.83,1.83,0,0,0-.78-1.05l.31-.2a12.27,12.27,0,0,1-.19,2.84,7.4,7.4,0,0,1-1,2.71,3.66,3.66,0,0,1-2.52,1.66,7.53,7.53,0,0,1-2.92-.32c-1.82-.42-3.61-.94-5.38-1.51a49.7,49.7,0,0,0-5.34-1.48v-.1a13.34,13.34,0,0,1,2.82.19c.93.14,1.84.34,2.75.55,1.82.41,3.61.89,5.4,1.4a6.69,6.69,0,0,0,2.56.45,2.9,2.9,0,0,0,2.06-1.23,9.69,9.69,0,0,0,1.36-5.14v-.38l.3.18a2.19,2.19,0,0,1,.9,1.32,7.72,7.72,0,0,1,.3,1.49,17.57,17.57,0,0,1,0,3Z"/><path d="M122.59,55.59a47.28,47.28,0,0,1,8.86-6.88,34.1,34.1,0,0,1,10.37-4.26,21.93,21.93,0,0,1,11.17.39,24.56,24.56,0,0,1,9.6,5.81A26.79,26.79,0,0,1,168.8,60a30.94,30.94,0,0,1,1.6,5.42,26.79,26.79,0,0,1,.41,2.81,5.13,5.13,0,0,1-.5,2.9,5.46,5.46,0,0,1-2,2.2l-.64.36L167,74a3.07,3.07,0,0,0-1,.66A3,3,0,0,0,165.2,77a4.83,4.83,0,0,0,.84,2.43,3.72,3.72,0,0,0,2,1.51,3.45,3.45,0,0,0,1.24.11,9.88,9.88,0,0,0,1.32-.24,5.73,5.73,0,0,0,2.33-1.15,3.48,3.48,0,0,0,1.18-2.15,7.43,7.43,0,0,0-1.59-4.92,7.24,7.24,0,0,1-.77-1.28,6.92,6.92,0,0,1-.44-1.43A23.29,23.29,0,0,1,171,67a25.2,25.2,0,0,0-1.17-5.36,25.89,25.89,0,0,0-2.19-5,32.65,32.65,0,0,0-7-8.52,28.46,28.46,0,0,0-9.51-5.45,26,26,0,0,0-10.89-1.26,28.37,28.37,0,0,0-10.52,3.31,44,44,0,0,0-9,6.56c-1.37,1.27-2.62,2.66-3.89,4l-3.8,4.12-.08-.07c2.55-2.74,5-5.55,7.62-8.24a41,41,0,0,1,8.89-6.87,28.9,28.9,0,0,1,10.7-3.55,26.44,26.44,0,0,1,11.24,1.11,29.15,29.15,0,0,1,5.23,2.25,28.79,28.79,0,0,1,4.66,3.29,33.94,33.94,0,0,1,7.16,8.79,27.18,27.18,0,0,1,2.26,5.23,25.56,25.56,0,0,1,1.16,5.6c.14,1.85.18,3.71,1.32,5.1a10.44,10.44,0,0,1,1.34,2.59,6.15,6.15,0,0,1,.35,3,4.26,4.26,0,0,1-1.47,2.64,6.34,6.34,0,0,1-2.67,1.3,9.85,9.85,0,0,1-1.44.25,4,4,0,0,1-1.53-.14,4.52,4.52,0,0,1-2.39-1.83,5.52,5.52,0,0,1-.95-2.81,3.75,3.75,0,0,1,1-2.85,3.51,3.51,0,0,1,1.31-.81l.62-.26.57-.32a4.77,4.77,0,0,0,1.75-1.9,4.48,4.48,0,0,0,.45-2.55,25.6,25.6,0,0,0-.38-2.75,29.93,29.93,0,0,0-1.53-5.32,26.28,26.28,0,0,0-6-9.24,24.35,24.35,0,0,0-9.37-5.79,21.66,21.66,0,0,0-11-.48,34.12,34.12,0,0,0-10.33,4.14,46.83,46.83,0,0,0-8.89,6.77Z"/><path d="M48.86,74.78A72.52,72.52,0,0,0,44.22,86,70.78,70.78,0,0,0,41.46,97.8c-1.13,8-.67,16.36,2.47,23.84a39.11,39.11,0,0,0,15.67,18A63.24,63.24,0,0,0,70.43,145,81.94,81.94,0,0,0,82,148.61a77,77,0,0,0,47.51-3.76,54.47,54.47,0,0,0,19.6-13.79,35,35,0,0,0,6.29-10.19,26.68,26.68,0,0,0,1.79-11.75l.66.24a60.21,60.21,0,0,1-9.63,7.46,63.62,63.62,0,0,1-10.85,5.52,53.72,53.72,0,0,1-23.92,3.77,55.38,55.38,0,0,1-12-2.29,39.66,39.66,0,0,1-11.11-5.1,14.35,14.35,0,0,1-4.27-4.53,9.23,9.23,0,0,1-1-6.18,14.47,14.47,0,0,1,2.52-5.69,23.43,23.43,0,0,1,4.18-4.55l.19-.16.25.06a131.5,131.5,0,0,0,14.07,2.77,105.09,105.09,0,0,0,14.28,1.17A51.29,51.29,0,0,0,134.68,100a23.68,23.68,0,0,0,6.47-2.84,15.24,15.24,0,0,0,4.87-5l-.05.15a29,29,0,0,0-2.64-12.81,25,25,0,0,0-8.37-10,28.41,28.41,0,0,0-5.83-3.12,36.57,36.57,0,0,1-6-2.95A6.94,6.94,0,0,1,120.66,61a1.94,1.94,0,0,1-.09-1.74A3.34,3.34,0,0,1,121.73,58a11.73,11.73,0,0,1,3.06-1.39,23.07,23.07,0,0,1,3.26-.78l0,.15a4.66,4.66,0,0,0-1.77-.61,7.63,7.63,0,0,0-1.91,0,10.3,10.3,0,0,0-1.88.39l-1.86.51,0-.1,1.86-.51a11,11,0,0,1,1.89-.41,7.41,7.41,0,0,1,1.94,0,4.76,4.76,0,0,1,1.86.62l.18.12-.22,0a25.31,25.31,0,0,0-3.22.82,11.3,11.3,0,0,0-3,1.4,3.08,3.08,0,0,0-1,1.18,1.65,1.65,0,0,0,.1,1.48,6.91,6.91,0,0,0,2.36,2.19,36.54,36.54,0,0,0,6,2.82A29.14,29.14,0,0,1,135.25,69a25.61,25.61,0,0,1,8.62,10.2,29.61,29.61,0,0,1,2.8,13.11v.08l0,.08a16,16,0,0,1-5.06,5.26,24.75,24.75,0,0,1-6.66,3,52,52,0,0,1-14.36,1.77,103.75,103.75,0,0,1-14.42-1.08,132.23,132.23,0,0,1-14.19-2.79l.44-.09a22.87,22.87,0,0,0-4,4.34A13.67,13.67,0,0,0,86,108.18a8.19,8.19,0,0,0,.92,5.53,13.42,13.42,0,0,0,4,4.21,38.52,38.52,0,0,0,10.82,5,54.88,54.88,0,0,0,11.76,2.3,53,53,0,0,0,23.54-3.62,63.45,63.45,0,0,0,10.73-5.41,60,60,0,0,0,9.51-7.32l.59-.58.07.82a27.68,27.68,0,0,1-1.87,12.08,35.87,35.87,0,0,1-6.45,10.38,55.25,55.25,0,0,1-19.89,13.91,77.41,77.41,0,0,1-47.86,3.65,84.21,84.21,0,0,1-11.61-3.69,64.41,64.41,0,0,1-10.88-5.47,39.5,39.5,0,0,1-15.73-18.17c-3.13-7.56-3.56-16-2.39-24A69.48,69.48,0,0,1,44.08,86a71.94,71.94,0,0,1,4.69-11.21Z"/><path d="M102.57,55a9.23,9.23,0,0,1-2.85-2.54,5.38,5.38,0,0,1-1-3.68,6.13,6.13,0,0,1,.53-1.88c.27-.59.56-1.14.8-1.72a19,19,0,0,0,1.15-3.59,9.1,9.1,0,0,0,.19-3.66,1.27,1.27,0,0,0-.32-.68c-.06-.1-.44-.12-.72-.14a6.44,6.44,0,0,0-1.8.18,5.63,5.63,0,0,0-3.06,1.77,9.8,9.8,0,0,1-3,2.53,9.52,9.52,0,0,1-3.74,1.25,22.33,22.33,0,0,0-3.6.91,5.49,5.49,0,0,0-1.53.78c-.22.2-.17.15-.34.59a5.11,5.11,0,0,1-.48.93,5.81,5.81,0,0,1-1.39,1.54,3.58,3.58,0,0,1-1,.53,3.53,3.53,0,0,1-.56.14l-.29,0h-.22a5.36,5.36,0,0,0-1.69.4,2.63,2.63,0,0,0-.68.42.43.43,0,0,0-.12.18s0-.08,0,.19a.77.77,0,0,1-.15.42A4.28,4.28,0,0,1,75,51.08c-.3.14-.6.26-.91.37l-.24.08-.23,0a.65.65,0,0,0-.26.19,1.56,1.56,0,0,0-.39.7c-.08.26,0,.58-.11.92a1.87,1.87,0,0,1-.42,1,1.56,1.56,0,0,1-.94.43A2,2,0,0,0,70.26,56a1,1,0,0,0,.1.85,1.8,1.8,0,0,0,.69.59l0,.09a2,2,0,0,1-.78-.6,1.17,1.17,0,0,1-.16-1,2.22,2.22,0,0,1,1.34-1.43,1.21,1.21,0,0,0,.74-.39,1.57,1.57,0,0,0,.25-.79c0-.15,0-.3,0-.45a2.37,2.37,0,0,1,0-.53,2.21,2.21,0,0,1,.46-1A1.2,1.2,0,0,1,73.4,51l.24-.07.2-.08c.28-.12.56-.26.83-.4a4.66,4.66,0,0,0,1.37-1c0-.12,0,.16,0-.31a1.29,1.29,0,0,1,.33-.64,3.2,3.2,0,0,1,.91-.62,6.23,6.23,0,0,1,2-.56,3.35,3.35,0,0,0,2.63-1.85,3.9,3.9,0,0,0,.39-.76c.07-.15.06-.21.2-.51a1.81,1.81,0,0,1,.44-.5,6.24,6.24,0,0,1,1.86-.93,21.8,21.8,0,0,1,3.8-.88,8.69,8.69,0,0,0,3.48-1,9,9,0,0,0,2.83-2.31,6.4,6.4,0,0,1,3.47-1.92,7.37,7.37,0,0,1,2-.16l.5.06a1.09,1.09,0,0,1,.59.26,1.87,1.87,0,0,1,.49,1,9.8,9.8,0,0,1-.27,3.9,20,20,0,0,1-1.27,3.63A11.61,11.61,0,0,0,99,48.81a5.06,5.06,0,0,0,.9,3.52,9.09,9.09,0,0,0,2.73,2.58Z"/><path d="M42.89,88.28c.21-1.53.46-3.06.72-4.58s.58-3,.7-4.56a12.41,12.41,0,0,0-.51-4.53,4.54,4.54,0,0,0-.95-2,3.85,3.85,0,0,0-2-1,12.85,12.85,0,0,0-4.54.15,38.32,38.32,0,0,0-4.46,1.13c-1.47.45-2.92,1-4.37,1.49l-2.17.81c-.36.13-.7.28-1.09.41A2.7,2.7,0,0,1,23,75.7a3.89,3.89,0,0,1-3-3.5,5.68,5.68,0,0,1,1.74-4.39,13.36,13.36,0,0,1,3.84-2.72c.69-.36,1.45-.65,2.12-1a5.91,5.91,0,0,0,1-.53c.28-.19.52-.47.47-.61s-.3-.41-.6-.57a6.51,6.51,0,0,0-1-.46,19.6,19.6,0,0,0-2.18-.65c-.74-.2-1.49-.33-2.27-.57a4,4,0,0,1-2.12-1.35A1.71,1.71,0,0,1,20.69,58a2.79,2.79,0,0,1,.64-1.16,7,7,0,0,1,2-1.46,15.1,15.1,0,0,1,4.51-1.47,18.34,18.34,0,0,1,2.35-.24,3.17,3.17,0,0,0,1-.12c.1-.06.08,0,.09-.09a.88.88,0,0,0-.09-.35c-.61-1.25-1.78-2.41-2.45-3.92a3.14,3.14,0,0,1-.31-1.29,1.93,1.93,0,0,1,.51-1.37,4.75,4.75,0,0,1,2.22-1.27,8,8,0,0,1,4.83.49,13.61,13.61,0,0,1,4,2.53c.6.55,1.12,1.09,1.68,1.6s1.14,1,1.73,1.49A35.32,35.32,0,0,0,51.2,56a35.16,35.16,0,0,0,8.72,2.6A27.11,27.11,0,0,0,69,58a53.19,53.19,0,0,0,8.78-2.75c1.43-.55,2.81-1.25,4.28-1.77a19.37,19.37,0,0,1,4.5-1.11v.1a19.35,19.35,0,0,0-4.41,1.27c-1.43.56-2.78,1.31-4.21,1.92a53.34,53.34,0,0,1-8.79,3,27,27,0,0,1-9.32.76,35.76,35.76,0,0,1-17.05-7.33c-.61-.5-1.2-1-1.78-1.53s-1.13-1.11-1.67-1.6a12.67,12.67,0,0,0-3.75-2.35,7.17,7.17,0,0,0-4.24-.48,3.63,3.63,0,0,0-1.76,1c-.4.39-.34,1-.06,1.68a12.17,12.17,0,0,0,1.13,1.9,12.93,12.93,0,0,1,1.28,2,1.7,1.7,0,0,1,.15.77,1,1,0,0,1-.59.77,3.61,3.61,0,0,1-1.3.18,17,17,0,0,0-2.25.21,14.35,14.35,0,0,0-4.28,1.35,6.23,6.23,0,0,0-1.74,1.28c-.47.52-.71,1.16-.36,1.65a3.34,3.34,0,0,0,1.73,1.07c.69.22,1.46.37,2.21.57a22.5,22.5,0,0,1,2.25.7,7.25,7.25,0,0,1,1.1.51,1.68,1.68,0,0,1,.92,1.07,1,1,0,0,1-.26.78,2.22,2.22,0,0,1-.49.44,7.54,7.54,0,0,1-1.07.59c-.74.32-1.43.57-2.11.93a12.71,12.71,0,0,0-3.69,2.56,5.13,5.13,0,0,0-1.63,3.93,3.39,3.39,0,0,0,2.58,3.06,2.12,2.12,0,0,0,1-.07c.34-.1.71-.26,1.07-.38L27.36,74c1.46-.52,2.92-1,4.41-1.45a38.63,38.63,0,0,1,4.52-1.09,12.81,12.81,0,0,1,4.66-.1,4.11,4.11,0,0,1,2.11,1.08,4.68,4.68,0,0,1,1,2.14,12.64,12.64,0,0,1,.46,4.62c-.14,1.55-.47,3.06-.75,4.57s-.55,3-.78,4.56Z"/><ellipse cx="142.41" cy="84.39" rx="2.45" ry="3.17" transform="matrix(1, -0.09, 0.09, 1, -6.96, 13.04)"/><ellipse cx="102.21" cy="90.14" rx="3.39" ry="3.81" transform="translate(-7.64 9.48) rotate(-5.12)"/><path d="M86.88,98.53A6.15,6.15,0,0,1,87,96.67a3.82,3.82,0,0,1,.9-1.75A2.49,2.49,0,0,1,89.72,94a3,3,0,0,1,1.86.64l0,.1a6.46,6.46,0,0,1-.92.12c-.28.07-.57,0-.82.13a3.22,3.22,0,0,0-1.41.49,3.15,3.15,0,0,0-1,1.31A6.18,6.18,0,0,0,87,98.53Z"/><path d="M85.33,97.28a5.9,5.9,0,0,1,.09-1.87,3.75,3.75,0,0,1,.89-1.75,2.49,2.49,0,0,1,1.86-.89,3,3,0,0,1,1.86.64l0,.1a6.46,6.46,0,0,1-.92.12c-.28.08-.57.05-.81.13a3.34,3.34,0,0,0-1.42.49,3.15,3.15,0,0,0-1,1.31,6.18,6.18,0,0,0-.46,1.71Z"/><path d="M96.43,90.32a6.66,6.66,0,0,0,0,1.34,3.47,3.47,0,0,0,.29,1.23,3.43,3.43,0,0,0,.66.85,7.49,7.49,0,0,0,1,.82v.1a1.72,1.72,0,0,1-1.57-.13A2,2,0,0,1,96,93.12a4.9,4.9,0,0,1,.38-2.83Z"/><path d="M146.32,83.53a7,7,0,0,1,.42,3.3,2.7,2.7,0,0,1-.68,1.69,2,2,0,0,1-1.72.54l0-.09a6.31,6.31,0,0,0,1-1.1,4.54,4.54,0,0,0,.93-2.72,8.45,8.45,0,0,0,0-1.59Z"/><path d="M72.7,99.82a20.41,20.41,0,0,0-2.2-4.44,13.91,13.91,0,0,0-3.31-3.65,10.11,10.11,0,0,0-4.46-1.92c-.4,0-.81,0-1.22,0a4,4,0,0,0-.6,0l-.61.09L59.09,90l-1.17.37a18.49,18.49,0,0,0-2.31.87,16.5,16.5,0,0,0-2.16,1.15c-.64.42-1.36,1-1.24,1.61s.92,1.1,1.55,1.62a3.24,3.24,0,0,1,.94,1,1,1,0,0,1,0,.88,1.69,1.69,0,0,1-.47.62A10.66,10.66,0,0,1,52,99.42c-.75.36-1.5.7-2.2,1.11a3.77,3.77,0,0,0-1.62,1.5,3.38,3.38,0,0,0,0,2.13,1.17,1.17,0,0,0,1.53.69,16,16,0,0,0,2.16-1.11,2,2,0,0,1,1.58-.13,1.35,1.35,0,0,1,.42.3,2,2,0,0,1,.25.41l.11.41,0,.39a5.67,5.67,0,0,1-.84,2.6,12.32,12.32,0,0,1-.77,1.08,9.51,9.51,0,0,0-.71,1,7.86,7.86,0,0,0-1.06,2.08,2.3,2.3,0,0,0,0,1.93.8.8,0,0,0,.69.23,4.64,4.64,0,0,0,.51-.11l.52-.2c.68-.34,1.41-.81,2.13-1.23,1.44-.84,2.89-1.66,4.38-2.42s3-1.49,4.54-2.13a18.8,18.8,0,0,1,4.82-1.41v.1a18.53,18.53,0,0,0-4.64,1.72c-1.49.72-3,1.51-4.39,2.33s-2.87,1.67-4.28,2.55c-.71.44-1.36.89-2.16,1.33l-.63.27c-.23.06-.47.12-.71.16a1.79,1.79,0,0,1-1.56-.55,2.29,2.29,0,0,1-.45-1.51,6,6,0,0,1,.25-1.36,9.12,9.12,0,0,1,1.17-2.36,11.74,11.74,0,0,1,.78-1,6.73,6.73,0,0,0,.69-1,4.61,4.61,0,0,0,.73-2.08c0-.36-.09-.59-.21-.62a1.16,1.16,0,0,0-.82.13,15.55,15.55,0,0,1-2.3,1.1,2.46,2.46,0,0,1-1.51-.1,2,2,0,0,1-1-1.15,3.56,3.56,0,0,1-.2-1.39,5,5,0,0,1,.27-1.37,4.64,4.64,0,0,1,2-1.84c.75-.42,1.52-.76,2.27-1.11a10,10,0,0,0,2.1-1.16c.29-.25.39-.46.27-.68a2.91,2.91,0,0,0-.75-.8c-.31-.26-.65-.51-1-.81a2.32,2.32,0,0,1-.77-1.2,1.6,1.6,0,0,1,.5-1.38,5.3,5.3,0,0,1,1-.82,16.62,16.62,0,0,1,2.26-1.16,17.13,17.13,0,0,1,2.37-.86L59,89.54l1.26-.16.64-.07a4.42,4.42,0,0,1,.63,0c.43,0,.85,0,1.27.09a10.39,10.39,0,0,1,4.58,2.07,14.55,14.55,0,0,1,3.3,3.78,20.48,20.48,0,0,1,2.12,4.52Z"/><path d="M85.44,109.51c.91.07,1.82.12,2.72.14.46,0,.91,0,1.36,0l.67-.07.33-.08s.18,0,.23.09,0,.15-.06.21a12.26,12.26,0,0,1-2,1.92c-.35.29-.72.57-1.09.84a5.8,5.8,0,0,1-.59.36,1.87,1.87,0,0,1-.32.15.71.71,0,0,1-.21,0,.16.16,0,0,1-.09,0c0-.2.07-.12.06-.15l.1,0c1.81-.27,3.62-.41,5.41-.72.45-.08.89-.16,1.33-.27a6,6,0,0,0,.64-.2,1.55,1.55,0,0,0,.29-.14.31.31,0,0,0,.11-.08l0-.06,0,0s.33.26.17.15c-.58.7-1.17,1.39-1.78,2.08s-1.21,1.36-1.87,2l-.52.46a2.49,2.49,0,0,1-.32.2l-.11,0a.21.21,0,0,1-.11,0c-.14,0,.14-.42.07-.26l.17,0,1.34-.22c1.79-.32,3.57-.69,5.32-1.16a15.07,15.07,0,0,0,5-2,2.4,2.4,0,0,0,.44-.46l.21-.28,0,0c-.22-.21.39.2.29.21l0,.08-.1.14-.81,1.1q-.83,1.09-1.68,2.16c-.58.71-1.17,1.41-1.79,2.08a12.24,12.24,0,0,1-2.06,1.86,1.73,1.73,0,0,1-.72.29h-.1a.2.2,0,0,1-.08,0c0,.25-.2-.42-.11-.38a.84.84,0,0,1,.22-.11l.34-.11,1.32-.37,2.63-.72c1.75-.48,3.5-1,5.23-1.53.86-.28,1.72-.57,2.56-.89a12.45,12.45,0,0,0,2.41-1.15,1.05,1.05,0,0,0,.38-.38,1.34,1.34,0,0,0,.05-.24c-.11,0,.94.16.5.1v0l0,.08,0,.16-.33,1.33c-.22.89-.47,1.77-.74,2.64a26.77,26.77,0,0,1-1,2.59,5.57,5.57,0,0,1-1.64,2.35,1.66,1.66,0,0,1-.37.16l-.12,0a.17.17,0,0,1-.12,0c0,.11-.47-.36-.25-.42a.69.69,0,0,1,.13-.16l.08-.06c.2-.15.39-.28.58-.4l1.16-.74,2.33-1.43c1.55-.95,3.09-1.9,4.6-2.91a21.94,21.94,0,0,0,2.17-1.58,1.26,1.26,0,0,0,.35-.39.56.56,0,0,1,.07-.15c.11-.33.9.22.59.18v.08l0,.2-.06.34c-.09.46-.19.9-.29,1.35a49.55,49.55,0,0,1-1.49,5.29,7.91,7.91,0,0,1-.59,1.3,1.65,1.65,0,0,1-.24.34,1.16,1.16,0,0,1-.21.16c-.09-.18.1.48-.53-.35.07-.21.08-.15.1-.19l.07-.08.51-.48,2-1.83,4.08-3.63,2-1.82,1-.91.49-.46.23-.23,0,0c-.12,0,.37-.32.49-.15a.45.45,0,0,1,.23.3c0,.13,0,.18,0,.25-.11,1.89-.39,3.66-.67,5.48a27.47,27.47,0,0,1-.57,2.72,3.79,3.79,0,0,1-.12.36.94.94,0,0,1-.06.12s0,0,0-.1-.1-.3-.22-.31-.18,0-.21,0a3.23,3.23,0,0,0,.47-.33c.34-.27.68-.56,1-.86a51.14,51.14,0,0,0,3.8-3.85,18.58,18.58,0,0,0,3.06-4.34,2.91,2.91,0,0,1,.18-.35,1.5,1.5,0,0,1,.14-.2l.1-.1a.69.69,0,0,1,.24-.14.58.58,0,0,1,.38,0,.47.47,0,0,1,.22.18.91.91,0,0,1,.14.29,2.35,2.35,0,0,1,.09.41,11.64,11.64,0,0,1,.06,1.43c0,.92-.07,1.84-.15,2.76s-.19,1.82-.33,2.73c-.08.46-.16.92-.27,1.39,0,.12-.07.23-.12.37a1.13,1.13,0,0,1-.09.22l-.08.13a.67.67,0,0,1-.38.23c0,.25-.72-.43-.54-.51a.59.59,0,0,1,.06-.22l.07-.12.12-.16.22-.29c1.19-1.4,2.4-2.75,3.55-4.15s2.28-2.81,3.3-4.29a22.36,22.36,0,0,0,1.4-2.27,10.4,10.4,0,0,0,.55-1.18c.07-.2.14-.4.19-.6s.11-.45.19-.7c0-.06.05-.13.1-.22l.05-.1a.62.62,0,0,1,.26-.2.5.5,0,0,1,.64.23.71.71,0,0,1,.07.16,3.15,3.15,0,0,1,0,.46c0,.25,0,.48,0,.71l-.09,1.38-.25,2.73L142.2,119l-.94-.27c1.32-2.93,2.6-5.9,3.79-8.89q.9-2.23,1.67-4.52c.25-.75.5-1.52.67-2.27l.13-.57.07-.54c0-.18,0-.43.06-.67l.06-.22a.54.54,0,0,1,.11-.19.24.24,0,0,1,.08-.1.62.62,0,0,1,.27-.13.6.6,0,0,1,.56.23,2.51,2.51,0,0,1,.14.21,10.1,10.1,0,0,1,.69,2.47c.15.81.26,1.62.34,2.43a33.53,33.53,0,0,1,.13,4.91c0,.81-.11,1.63-.23,2.45s-.33,1.66-.36,2.32c0,0,0,.1-.06-.07a.35.35,0,0,0-.21-.13.33.33,0,0,0-.23,0s-.06,0-.05,0a1.21,1.21,0,0,0,.11-.19,4.12,4.12,0,0,0,.24-.52c.16-.36.3-.73.44-1.11.27-.75.53-1.51.77-2.28a91.51,91.51,0,0,0,2.43-9.34c.31-1.58.57-3.16.73-4.76a13.49,13.49,0,0,0-.2-4.71L153,91.52l-.09-.3-.05-.16V91s0,0,0-.06,0,0,0-.15.28-.07.3-.07.1.07.09.07a2.8,2.8,0,0,1,.33.59c.35.75.64,1.5.92,2.26q.84,2.3,1.45,4.65a24.66,24.66,0,0,1,.89,9.62h-.09a24.68,24.68,0,0,0-1.11-9.53,48.09,48.09,0,0,0-1.54-4.57c-.29-.75-.6-1.5-.94-2.21-.08-.17-.2-.39-.25-.47s0,0,.06,0,.08.08.27-.07l0-.1v0l0,.13.09.28.43,1.14a13.58,13.58,0,0,1,.28,4.91,46,46,0,0,1-.68,4.83,90.34,90.34,0,0,1-2.34,9.44c-.24.77-.49,1.55-.76,2.32-.13.38-.27.76-.43,1.15-.08.19-.16.38-.26.58a3.64,3.64,0,0,1-.2.33.85.85,0,0,1-.16.14.46.46,0,0,1-.3,0,.4.4,0,0,1-.27-.16.61.61,0,0,1-.1-.37c0-1,.26-1.66.34-2.46a23.62,23.62,0,0,0,.2-2.38,33,33,0,0,0-.18-4.77c-.09-.8-.21-1.59-.36-2.36a9.84,9.84,0,0,0-.62-2.18l0,0a.37.37,0,0,0,.32.09.35.35,0,0,0,.2-.1l0,0s0-.07,0-.06v.07c0,.16,0,.32-.05.54l-.07.66-.13.62c-.18.82-.42,1.6-.67,2.38-.52,1.54-1.09,3.06-1.69,4.57-1.2,3-2.48,6-3.82,8.94L140.88,122l.33-3.09.58-5.42.25-2.71.08-1.34c0-.23,0-.45,0-.66s0-.22,0-.22a.13.13,0,0,0,0,.08.46.46,0,0,0,.58.2c.16-.07.16-.11.19-.15h0l0,.09c-.06.18-.11.39-.17.61a7.36,7.36,0,0,1-.22.71,12.71,12.71,0,0,1-.6,1.29,24.66,24.66,0,0,1-1.46,2.37c-1.06,1.52-2.21,2.95-3.38,4.35s-2.4,2.76-3.57,4.13l-.2.25-.09.11s0,0,0,0,0,0,0-.13-.49-.71-.49-.47a.31.31,0,0,0-.24.12s0,0,0,0,0-.06,0-.09.06-.19.09-.29c.1-.41.18-.85.26-1.29.14-.88.25-1.78.33-2.68s.16-1.8.17-2.69a9.08,9.08,0,0,0,0-1.29,2.43,2.43,0,0,0-.05-.26s0-.08,0,0l.1.07c.08,0,.2,0,.22,0a.19.19,0,0,0,.09,0l0,0,0,.08c-.05.07-.09.17-.14.26a19.07,19.07,0,0,1-3.22,4.53,49.23,49.23,0,0,1-3.89,3.89c-.35.31-.7.61-1.07.9a3,3,0,0,1-.67.43.48.48,0,0,1-.37,0c-.15,0-.3-.33-.26-.37a.35.35,0,0,1,0-.18c0-.15.07-.16.08-.2a1.83,1.83,0,0,0,.1-.28c.24-.83.4-1.74.56-2.62.29-1.77.57-3.61.68-5.36v-.09c0-.08,0,.18.2.23s.56-.17.42-.11a.37.37,0,0,1-.09.11l-.26.25-.5.47-1,.92-2,1.81-4.09,3.61-2,1.81-.49.46,0,0s0,.07,0-.12c-.63-.8-.4-.18-.47-.36l.06,0a1,1,0,0,0,.16-.22,7,7,0,0,0,.53-1.18,46.19,46.19,0,0,0,1.5-5.2c.1-.45.2-.89.28-1.33l.06-.32,0-.14h0c-.3-.07.48.44.56.15,0,0,0,0,0,0a1.85,1.85,0,0,1-.52.64,21.75,21.75,0,0,1-2.25,1.63c-1.53,1-3.08,1.95-4.64,2.9L108.53,122l-1.15.72c-.19.13-.38.25-.54.37l-.06,0s0,.05,0,0c.2,0-.23-.48-.21-.38h0l.25-.11a5.09,5.09,0,0,0,1.43-2.09,24.78,24.78,0,0,0,1-2.53c.27-.86.52-1.73.74-2.61l.33-1.32,0-.17,0-.08v0c-.44-.09.64,0,.51.08a1.27,1.27,0,0,1-.09.42,1.57,1.57,0,0,1-.56.58,12.29,12.29,0,0,1-2.52,1.19c-.86.32-1.73.61-2.6.88-1.74.55-3.5,1-5.25,1.51l-2.64.71-1.31.36-.32.1s-.13,0-.09,0-.07-.58-.09-.34h.08A1.3,1.3,0,0,0,96,119a21.43,21.43,0,0,0,3.78-3.83c.57-.7,1.14-1.41,1.69-2.13l.81-1.09.09-.14,0-.06c-.07,0,.52.38.28.2l0,0-.2.27a3.5,3.5,0,0,1-.5.52,9.19,9.19,0,0,1-2.47,1.27c-.86.31-1.73.57-2.62.8-1.76.47-3.55.83-5.35,1.14l-1.35.22-.17,0c-.09.16.16-.21,0-.24l0,0h0a1.64,1.64,0,0,0,.26-.17,5.08,5.08,0,0,0,.5-.44c.65-.62,1.27-1.3,1.87-2s1.21-1.37,1.79-2.06c-.14-.14.22.15.17.14l0,0-.06.07a.79.79,0,0,1-.15.12,2.41,2.41,0,0,1-.33.15,4,4,0,0,1-.67.2c-.44.11-.89.19-1.34.27-1.8.3-3.63.43-5.42.68l-.07,0s0,.07,0-.1,0,0,0,0a.31.31,0,0,0,.13,0,1.94,1.94,0,0,0,.3-.13l.57-.35c.37-.26.73-.54,1.08-.83a12.29,12.29,0,0,0,1.94-1.87.41.41,0,0,0,.05-.11s0,0-.07,0l-.33.08q-.34,0-.69.06c-.46,0-.91,0-1.37,0-.91,0-1.82-.08-2.73-.16Z"/><path d="M93.85,100l.17,1.84-.09-.05,2-1.12.1-.06v.12l.3,3.09-.15-.07,3.82-2.39.14-.09,0,.15a40.82,40.82,0,0,1,1.44,4.76,4.44,4.44,0,0,1,.08.65.63.63,0,0,1-.1.4.32.32,0,0,1-.17.09h-.06c-.07,0-.17-.12-.15-.15a.28.28,0,0,1,0-.14c0-.07.09-.1.12-.14.3-.31.6-.58.9-.87a18.84,18.84,0,0,0,1.67-1.8,7.34,7.34,0,0,0,.68-1,3.54,3.54,0,0,0,.23-.53c.07-.19,0-.33.14-.62a.27.27,0,0,1,.09-.13.27.27,0,0,1,.22-.09.44.44,0,0,1,.26.15,1.68,1.68,0,0,1,.2.29c.11.19.2.38.29.57.17.39.32.77.47,1.16.29.78.55,1.57.8,2.36l.36,1.2.08.3,0,.16,0,.11v.06c-.1-.08.2.3-.21-.25l-.14,0h0c.11-.11.27-.28.4-.43,1.1-1.22,2.18-2.48,3.21-3.75a4.85,4.85,0,0,0,.34-.46.33.33,0,0,0,0,.08c0,.22,0-.28.34-.27l.08,0a.58.58,0,0,1,.12.08l.13.11.23.22c.3.3.59.61.86.92a18.84,18.84,0,0,1,1.57,2,5,5,0,0,1,.61,1.18,1.22,1.22,0,0,1,.05.4v.11s0,0,0-.06-.08-.13-.17-.14a.25.25,0,0,0-.15,0,2.79,2.79,0,0,0,.33-.37c.48-.64.93-1.34,1.36-2l.64-1,.3-.53.14-.26,0-.05s0,.05,0,0a.36.36,0,0,1,.35-.28.58.58,0,0,1,.33.14,6.83,6.83,0,0,1,1.59,2.07,5.61,5.61,0,0,1,.5,1.21,4.58,4.58,0,0,1,.15.64,1.32,1.32,0,0,0,.08.44c-.06,0,.38,0,.7-.19a9.78,9.78,0,0,0,1-.64,21.65,21.65,0,0,0,3.48-3.34s0-.09,0,0a.63.63,0,0,1,0-.12c-.27.14.37-.44.66-.12a.76.76,0,0,1,.09.15l0,.11.08.33.1.63c.06.42.11.84.14,1.26a11.28,11.28,0,0,1,0,1.3,2.76,2.76,0,0,1-.4,1.4h0s0,0,0,0a.4.4,0,0,0,0-.16c0-.19-.3-.32-.27-.29a.16.16,0,0,0-.12,0s0,0,0,0l.22-.1a5.51,5.51,0,0,0,.5-.3c.33-.22.66-.45,1-.7a18.21,18.21,0,0,0,1.8-1.6,9.24,9.24,0,0,0,1.43-1.86,3,3,0,0,0,.35-1l.06-.33,0-.17a1.32,1.32,0,0,1,.12-.29.55.55,0,0,1,.11-.11.51.51,0,0,1,.41-.1.45.45,0,0,1,.28.19l.07.11a.62.62,0,0,1,.05.18,2,2,0,0,1,0,.2v.34a19.56,19.56,0,0,1-.14,2.54,7.62,7.62,0,0,1-.66,2.58,1.26,1.26,0,0,1-.31.38s-.06.06,0,0v0a.34.34,0,0,0,.06-.18.49.49,0,0,0-.21-.43c-.23-.1-.15,0-.2-.07h0a1.84,1.84,0,0,0,.43-.16,7.2,7.2,0,0,0,1-.58,10,10,0,0,0,1.78-1.54,8.52,8.52,0,0,0,2.11-4.12l.39-2,.58,2a14.53,14.53,0,0,1,.59,3.34,6.57,6.57,0,0,1-.13,1.76,3.09,3.09,0,0,1-.92,1.69l-.61-.77a16.15,16.15,0,0,0,2.06-1.84,17.12,17.12,0,0,0,1.75-2.15,12.84,12.84,0,0,0,1.3-2.42,10.19,10.19,0,0,0,.66-2.65l.16-1.3.57,1.14a9.07,9.07,0,0,1,1,4.88,6.78,6.78,0,0,1-.26,1.25c-.13.38-.38.86-.43,1,0,0,0-.11-.16-.21a.22.22,0,0,0-.11,0h-.06l.07,0a1.66,1.66,0,0,0,.18-.19c.13-.14.25-.3.37-.45.24-.32.47-.65.68-1a20.15,20.15,0,0,0,2.12-4.29,6.16,6.16,0,0,0,.09-4.64l.09,0a4.43,4.43,0,0,1,.52,2.37,10,10,0,0,1-.4,2.42,19.18,19.18,0,0,1-2,4.46c-.21.35-.43.69-.67,1-.12.17-.24.33-.38.5a2.55,2.55,0,0,1-.23.24.9.9,0,0,1-.17.14l-.09,0h-.07a.38.38,0,0,1-.15,0,.37.37,0,0,1-.22-.34,2.54,2.54,0,0,1,.22-.69c.07-.18.14-.36.2-.54a6,6,0,0,0,.2-1.12,8.53,8.53,0,0,0-1.06-4.44l.73-.16a11,11,0,0,1-.66,2.89,13.45,13.45,0,0,1-1.35,2.61,17.44,17.44,0,0,1-1.81,2.3,17.8,17.8,0,0,1-2.15,2l-.61-.77a3.51,3.51,0,0,0,.69-2.66,13.53,13.53,0,0,0-.54-3.09l1-.06a9.51,9.51,0,0,1-2.35,4.6,10.87,10.87,0,0,1-2,1.69,9.15,9.15,0,0,1-1.14.66,3.16,3.16,0,0,1-.74.25h-.13c-.07,0,0,0-.27-.08a.52.52,0,0,1-.24-.49.71.71,0,0,1,.07-.22l0,0a.86.86,0,0,1,.22-.22.42.42,0,0,0,.07-.1,7.32,7.32,0,0,0,.54-2.2,17.87,17.87,0,0,0,.17-2.41v-.38s0,0,0,0a.19.19,0,0,0,.05.08.42.42,0,0,0,.25.16c.11.07.39-.06.38-.08a.51.51,0,0,0,.08-.09c0-.08,0,0,0,0l0,.12-.06.29a4.2,4.2,0,0,1-.46,1.3,9.81,9.81,0,0,1-1.6,2,17.86,17.86,0,0,1-1.92,1.66c-.33.25-.68.5-1,.73l-.57.33a2.44,2.44,0,0,1-.35.15l-.15,0a.71.71,0,0,1-.2,0s-.31-.13-.32-.34a.39.39,0,0,1,0-.23.36.36,0,0,1,0-.12l.08-.12a2.05,2.05,0,0,0,.24-1,7.87,7.87,0,0,0,0-1.19q0-.6-.12-1.2l-.09-.59-.06-.28v0s0,0,.06.08c.28.31.9-.26.64-.1,0,0,0-.11,0-.09a.66.66,0,0,1-.14.32,16.51,16.51,0,0,1-1.76,1.86,21.48,21.48,0,0,1-1.93,1.62,7.58,7.58,0,0,1-1.1.69,2.45,2.45,0,0,1-.66.25,1,1,0,0,1-.45,0,.73.73,0,0,1-.47-.29.87.87,0,0,1-.17-.45l0-.3a5.05,5.05,0,0,0-.12-.56,6.38,6.38,0,0,0-.44-1.09,6.68,6.68,0,0,0-1.38-1.85s-.12,0,.06,0a.3.3,0,0,0,.29-.24l0,.09,0,.09-.16.29-.31.55-.66,1.06c-.45.7-.9,1.39-1.42,2.07a2.53,2.53,0,0,1-.52.52.43.43,0,0,1-.3,0,.39.39,0,0,1-.22-.19.61.61,0,0,1,0-.13c0-.12,0-.2,0-.21a.59.59,0,0,0,0-.21,4.41,4.41,0,0,0-.52-1,18.18,18.18,0,0,0-1.5-1.93c-.27-.3-.54-.61-.83-.89l-.21-.21-.11-.1h0a.32.32,0,0,0,.32-.25.26.26,0,0,1,0,.16c-.14.23-.26.36-.39.54-1.06,1.28-2.15,2.52-3.28,3.75-.14.15-.27.29-.45.46l0,0c-.07,0,.11,0-.17,0-.43-.55-.12-.19-.22-.28v0l0-.14-.07-.3-.34-1.18c-.24-.79-.49-1.58-.77-2.35-.14-.38-.28-.77-.44-1.14-.08-.19-.17-.37-.26-.54a1.27,1.27,0,0,0-.15-.21s0,0,0,0,.1-.08.09,0-.06.38-.13.58a5.46,5.46,0,0,1-.27.6,6.45,6.45,0,0,1-.73,1,18.5,18.5,0,0,1-1.73,1.81c-.29.29-.61.57-.89.85l-.08.09s0,0,0-.07-.07-.14-.13-.13h0s0,0,0,0a.56.56,0,0,0,0-.19,4.07,4.07,0,0,0-.06-.59,38.21,38.21,0,0,0-1.38-4.74l.18.07-3.85,2.34-.13.08v-.15l-.26-3.1.11.06-2,1.1-.08,0v-.09L93.75,100Z"/><path d="M26.06,70.55a26.07,26.07,0,0,1,4.77-3,14.15,14.15,0,0,1,2.66-1.05,8,8,0,0,1,2.84-.21v0a20.17,20.17,0,0,0-2.71.64c-.88.28-1.76.57-2.62.93a30.18,30.18,0,0,0-4.91,2.72Z"/><path d="M27,58.46a28.85,28.85,0,0,1,4.9.48,11.15,11.15,0,0,1,2.41.65,4.88,4.88,0,0,1,2,1.44l0,0a8.63,8.63,0,0,0-2.18-1c-.76-.26-1.52-.53-2.31-.73A35.68,35.68,0,0,0,27,58.51Z"/><path d="M32.49,54.42a18,18,0,0,1,3.42,1.12,6.58,6.58,0,0,1,1.59.9,3.23,3.23,0,0,1,1.11,1.47l0,0a6.71,6.71,0,0,0-1.35-1.1c-.48-.31-1-.65-1.48-.94a23,23,0,0,0-3.25-1.43Z"/><path d="M35.23,48.62a38.68,38.68,0,0,1,3.05,3.09,12.38,12.38,0,0,1,1.35,1.71,5.43,5.43,0,0,1,.83,2l-.05,0a13.46,13.46,0,0,0-1.19-1.78c-.43-.56-.81-1.17-1.25-1.74-.88-1.13-1.81-2.23-2.77-3.3Z"/><path d="M74.39,52.76c.5.22,1,.45,1.49.69a4.14,4.14,0,0,1,.72.38,2.3,2.3,0,0,1,.58.62l0,0a2.69,2.69,0,0,1-.82-.23,3.38,3.38,0,0,1-.67-.47c-.44-.32-.88-.65-1.31-1Z"/><path d="M77.19,50.6a6.67,6.67,0,0,1,1.46,1.25,3,3,0,0,1,.58.79,2.15,2.15,0,0,1,.19,1h0c-.24-.25-.38-.51-.58-.75s-.29-.53-.46-.79a10,10,0,0,0-1.17-1.45Z"/><path d="M80.17,48.93a8.91,8.91,0,0,1,1.89,1.89,4.19,4.19,0,0,1,.68,1.2,2.69,2.69,0,0,1,.06,1.38h0a12.2,12.2,0,0,0-.48-1.21c-.18-.37-.33-.77-.54-1.15A10.92,10.92,0,0,0,80.13,49Z"/><path d="M84.43,45.55a11.08,11.08,0,0,1,1.64,2.88,6.31,6.31,0,0,1,.49,1.6,5.26,5.26,0,0,1,0,1.68h0c-.18-.54-.28-1.06-.44-1.58s-.23-1.05-.38-1.57a13.14,13.14,0,0,0-1.3-3Z"/><path d="M89.28,43.76a18.72,18.72,0,0,1,1.28,3.31,8.19,8.19,0,0,1,.35,1.76,5.12,5.12,0,0,1-.21,1.79h0c-.09-.6-.14-1.17-.23-1.74s-.14-1.14-.25-1.71a22.44,22.44,0,0,0-.94-3.39Z"/><path d="M97.63,39.18q-.21,2.9-.56,5.78c-.11,1-.21,1.93-.41,2.88a12.54,12.54,0,0,1-.87,2.79l-.05,0c.17-1,.3-1.9.43-2.86s.34-1.89.5-2.85l.91-5.72Z"/><path d="M53.35,110.91a24.54,24.54,0,0,1,3.48-5,10.24,10.24,0,0,1,2.33-2,5.12,5.12,0,0,1,3-.81v0a7,7,0,0,0-2.69,1.18,16.44,16.44,0,0,0-2.31,1.87,28.06,28.06,0,0,0-3.72,4.74Z"/><path d="M54.49,103.09a18.24,18.24,0,0,1,3.26-2,8.19,8.19,0,0,1,1.81-.67,4.88,4.88,0,0,1,1.94,0v0c-.63.14-1.23.27-1.82.46s-1.18.34-1.77.56a22.53,22.53,0,0,0-3.39,1.64Z"/><path d="M51.57,101.09a38,38,0,0,1,6.19-2.64,16.1,16.1,0,0,1,3.29-.79,7.58,7.58,0,0,1,3.38.29l0,0a11.68,11.68,0,0,0-3.29.16,30.26,30.26,0,0,0-3.25.68,44.54,44.54,0,0,0-6.28,2.29Z"/><path d="M54.5,93.78a22.64,22.64,0,0,1,6.57-.68,8,8,0,0,1,3.27.77,3.61,3.61,0,0,1,2,2.64h0a4.05,4.05,0,0,0-2.16-2.2A10,10,0,0,0,61,93.5a18.67,18.67,0,0,0-3.26,0,25.63,25.63,0,0,0-3.26.38Z"/><path d="M31.2,63a19.15,19.15,0,0,1,2.73-.29,6.37,6.37,0,0,1,1.38,0,2.74,2.74,0,0,1,1.3.55l0,0a10.17,10.17,0,0,0-1.34-.09c-.44,0-.88-.1-1.33-.13-.9-.06-1.8-.07-2.71-.06Z"/></g></svg>